<mxfile host="app.diagrams.net" agent="Mozilla/5.0 (X11; Linux x86_64) AppleWebKit/537.36 (KHTML, like Gecko) Chrome/138.0.0.0 Safari/537.36" version="28.2.0">
  <diagram name="Page-1" id="F7CuILzPtrB4Li8s-eBJ">
    <mxGraphModel grid="1" page="1" gridSize="20" guides="1" tooltips="1" connect="1" arrows="1" fold="1" pageScale="1" pageWidth="827" pageHeight="1169" math="0" shadow="0">
      <root>
        <mxCell id="0" />
        <mxCell id="1" parent="0" />
        <mxCell id="GMQwAWCvowhwmadd4oTI-2" value="Data Flow Diagram" style="text;html=1;align=center;verticalAlign=middle;whiteSpace=wrap;rounded=0;fontColor=#393C56;fontSize=20;fontStyle=1" vertex="1" parent="1">
          <mxGeometry x="20" y="20" width="220" height="40" as="geometry" />
        </mxCell>
        <mxCell id="GMQwAWCvowhwmadd4oTI-5" value="" style="swimlane;startSize=0;rounded=1;" vertex="1" parent="1">
          <mxGeometry x="80" y="160" width="200" height="400" as="geometry" />
        </mxCell>
        <mxCell id="GMQwAWCvowhwmadd4oTI-9" value="" style="image;aspect=fixed;html=1;points=[];align=center;fontSize=12;image=img/lib/azure2/general/Folder_Blank.svg;rounded=1;" vertex="1" parent="GMQwAWCvowhwmadd4oTI-5">
          <mxGeometry x="58.5" y="80" width="69" height="56.00000000000001" as="geometry" />
        </mxCell>
        <mxCell id="GMQwAWCvowhwmadd4oTI-10" value="&lt;b&gt;&lt;font style=&quot;font-size: 16px;&quot;&gt;CRM&lt;/font&gt;&lt;/b&gt;" style="text;html=1;align=center;verticalAlign=middle;whiteSpace=wrap;rounded=0;" vertex="1" parent="GMQwAWCvowhwmadd4oTI-5">
          <mxGeometry x="60" y="140" width="60" height="30" as="geometry" />
        </mxCell>
        <mxCell id="GMQwAWCvowhwmadd4oTI-11" value="" style="image;aspect=fixed;html=1;points=[];align=center;fontSize=12;image=img/lib/azure2/general/Folder_Blank.svg;rounded=1;" vertex="1" parent="GMQwAWCvowhwmadd4oTI-5">
          <mxGeometry x="59.5" y="250" width="69" height="56.00000000000001" as="geometry" />
        </mxCell>
        <mxCell id="GMQwAWCvowhwmadd4oTI-12" value="&lt;span style=&quot;font-size: 16px;&quot;&gt;&lt;b&gt;ERP&lt;/b&gt;&lt;/span&gt;" style="text;html=1;align=center;verticalAlign=middle;whiteSpace=wrap;rounded=0;" vertex="1" parent="GMQwAWCvowhwmadd4oTI-5">
          <mxGeometry x="60" y="313" width="60" height="30" as="geometry" />
        </mxCell>
        <mxCell id="GMQwAWCvowhwmadd4oTI-8" value="Sources" style="text;html=1;align=center;verticalAlign=middle;whiteSpace=wrap;rounded=0;fontColor=#393C56;fontSize=16;fontStyle=1" vertex="1" parent="1">
          <mxGeometry x="140" y="120" width="60" height="30" as="geometry" />
        </mxCell>
        <mxCell id="GMQwAWCvowhwmadd4oTI-13" value="" style="swimlane;startSize=0;rounded=1;strokeColor=#E07A5F;fontColor=#393C56;fillColor=#F2CC8F;" vertex="1" parent="1">
          <mxGeometry x="340" y="160" width="200" height="400" as="geometry" />
        </mxCell>
        <mxCell id="GMQwAWCvowhwmadd4oTI-14" value="crm_sales_details" style="rounded=1;whiteSpace=wrap;html=1;strokeColor=#E07A5F;fontColor=#393C56;fillColor=#F2CC8F;" vertex="1" parent="GMQwAWCvowhwmadd4oTI-13">
          <mxGeometry x="40" y="20" width="120" height="40" as="geometry" />
        </mxCell>
        <mxCell id="GMQwAWCvowhwmadd4oTI-15" value="crm_cust_info" style="rounded=1;whiteSpace=wrap;html=1;strokeColor=#E07A5F;fontColor=#393C56;fillColor=#F2CC8F;" vertex="1" parent="GMQwAWCvowhwmadd4oTI-13">
          <mxGeometry x="40" y="80" width="120" height="40" as="geometry" />
        </mxCell>
        <mxCell id="GMQwAWCvowhwmadd4oTI-16" value="crm_prd_info" style="rounded=1;whiteSpace=wrap;html=1;strokeColor=#E07A5F;fontColor=#393C56;fillColor=#F2CC8F;" vertex="1" parent="GMQwAWCvowhwmadd4oTI-13">
          <mxGeometry x="40" y="140" width="120" height="40" as="geometry" />
        </mxCell>
        <mxCell id="GMQwAWCvowhwmadd4oTI-17" value="erp_cust_az12" style="rounded=1;whiteSpace=wrap;html=1;strokeColor=#E07A5F;fontColor=#393C56;fillColor=#F2CC8F;" vertex="1" parent="GMQwAWCvowhwmadd4oTI-13">
          <mxGeometry x="40" y="200" width="120" height="40" as="geometry" />
        </mxCell>
        <mxCell id="GMQwAWCvowhwmadd4oTI-18" value="erp_loc_a101" style="rounded=1;whiteSpace=wrap;html=1;strokeColor=#E07A5F;fontColor=#393C56;fillColor=#F2CC8F;" vertex="1" parent="GMQwAWCvowhwmadd4oTI-13">
          <mxGeometry x="40" y="260" width="120" height="40" as="geometry" />
        </mxCell>
        <mxCell id="GMQwAWCvowhwmadd4oTI-19" value="erp_px_cat_g1v2" style="rounded=1;whiteSpace=wrap;html=1;strokeColor=#E07A5F;fontColor=#393C56;fillColor=#F2CC8F;" vertex="1" parent="GMQwAWCvowhwmadd4oTI-13">
          <mxGeometry x="40" y="320" width="120" height="40" as="geometry" />
        </mxCell>
        <mxCell id="GMQwAWCvowhwmadd4oTI-29" value="" style="edgeStyle=orthogonalEdgeStyle;html=1;endArrow=open;elbow=vertical;startArrow=none;endFill=0;strokeColor=#545B64;rounded=0;fontColor=#393C56;fillColor=#F2CC8F;entryX=0;entryY=0.75;entryDx=0;entryDy=0;" edge="1" parent="1" target="GMQwAWCvowhwmadd4oTI-15">
          <mxGeometry width="100" relative="1" as="geometry">
            <mxPoint x="200" y="270" as="sourcePoint" />
            <mxPoint x="460" y="240" as="targetPoint" />
          </mxGeometry>
        </mxCell>
        <mxCell id="GMQwAWCvowhwmadd4oTI-30" value="" style="endArrow=none;html=1;rounded=1;strokeColor=light-dark(#171716, #b9624b);fontColor=#393C56;fillColor=#F2CC8F;" edge="1" parent="1">
          <mxGeometry width="50" height="50" relative="1" as="geometry">
            <mxPoint x="320" y="320" as="sourcePoint" />
            <mxPoint x="320" y="200" as="targetPoint" />
          </mxGeometry>
        </mxCell>
        <mxCell id="GMQwAWCvowhwmadd4oTI-31" value="" style="edgeStyle=orthogonalEdgeStyle;html=1;endArrow=open;elbow=vertical;startArrow=none;endFill=0;strokeColor=#545B64;rounded=0;fontColor=#393C56;fillColor=#F2CC8F;" edge="1" parent="1">
          <mxGeometry width="100" relative="1" as="geometry">
            <mxPoint x="320" y="198" as="sourcePoint" />
            <mxPoint x="380" y="199" as="targetPoint" />
            <Array as="points">
              <mxPoint x="320" y="200" />
              <mxPoint x="377" y="200" />
            </Array>
          </mxGeometry>
        </mxCell>
        <mxCell id="GMQwAWCvowhwmadd4oTI-32" value="" style="edgeStyle=orthogonalEdgeStyle;html=1;endArrow=open;elbow=vertical;startArrow=none;endFill=0;strokeColor=#545B64;rounded=0;fontColor=#393C56;fillColor=#F2CC8F;" edge="1" parent="1">
          <mxGeometry width="100" relative="1" as="geometry">
            <mxPoint x="320" y="320" as="sourcePoint" />
            <mxPoint x="380" y="320" as="targetPoint" />
          </mxGeometry>
        </mxCell>
        <mxCell id="GMQwAWCvowhwmadd4oTI-33" value="" style="edgeStyle=orthogonalEdgeStyle;html=1;endArrow=open;elbow=vertical;startArrow=none;endFill=0;strokeColor=#545B64;rounded=0;fontColor=#393C56;fillColor=#F2CC8F;" edge="1" parent="1" source="GMQwAWCvowhwmadd4oTI-11">
          <mxGeometry width="100" relative="1" as="geometry">
            <mxPoint x="520" y="380" as="sourcePoint" />
            <mxPoint x="380" y="438" as="targetPoint" />
          </mxGeometry>
        </mxCell>
        <mxCell id="GMQwAWCvowhwmadd4oTI-34" value="" style="endArrow=none;html=1;rounded=1;strokeColor=light-dark(#1a1a1a, #b9624b);fontColor=#393C56;fillColor=#F2CC8F;" edge="1" parent="1">
          <mxGeometry width="50" height="50" relative="1" as="geometry">
            <mxPoint x="320" y="500" as="sourcePoint" />
            <mxPoint x="320" y="382" as="targetPoint" />
          </mxGeometry>
        </mxCell>
        <mxCell id="GMQwAWCvowhwmadd4oTI-35" value="" style="edgeStyle=orthogonalEdgeStyle;html=1;endArrow=open;elbow=vertical;startArrow=none;endFill=0;strokeColor=#545B64;rounded=0;fontColor=#393C56;fillColor=#F2CC8F;entryX=0;entryY=0.5;entryDx=0;entryDy=0;" edge="1" parent="1" target="GMQwAWCvowhwmadd4oTI-17">
          <mxGeometry width="100" relative="1" as="geometry">
            <mxPoint x="320" y="380" as="sourcePoint" />
            <mxPoint x="380" y="381" as="targetPoint" />
          </mxGeometry>
        </mxCell>
        <mxCell id="GMQwAWCvowhwmadd4oTI-36" value="" style="edgeStyle=orthogonalEdgeStyle;html=1;endArrow=open;elbow=vertical;startArrow=none;endFill=0;strokeColor=#545B64;rounded=0;fontColor=#393C56;fillColor=#F2CC8F;entryX=0;entryY=0.5;entryDx=0;entryDy=0;" edge="1" parent="1" target="GMQwAWCvowhwmadd4oTI-19">
          <mxGeometry width="100" relative="1" as="geometry">
            <mxPoint x="320" y="500" as="sourcePoint" />
            <mxPoint x="620" y="340" as="targetPoint" />
          </mxGeometry>
        </mxCell>
        <mxCell id="GMQwAWCvowhwmadd4oTI-37" value="&lt;b&gt;&lt;font style=&quot;font-size: 14px;&quot;&gt;Bronze Layer&lt;/font&gt;&lt;/b&gt;" style="rounded=0;whiteSpace=wrap;html=1;strokeColor=#E07A5F;fontColor=#393C56;fillColor=#F2CC8F;" vertex="1" parent="1">
          <mxGeometry x="370" y="100" width="140" height="50" as="geometry" />
        </mxCell>
        <mxCell id="GMQwAWCvowhwmadd4oTI-39" value="" style="swimlane;startSize=0;rounded=1;strokeColor=#6c8ebf;fillColor=#dae8fc;" vertex="1" parent="1">
          <mxGeometry x="660" y="160" width="200" height="400" as="geometry" />
        </mxCell>
        <mxCell id="GMQwAWCvowhwmadd4oTI-40" value="crm_sales_details" style="rounded=1;whiteSpace=wrap;html=1;strokeColor=#6c8ebf;fillColor=#dae8fc;" vertex="1" parent="GMQwAWCvowhwmadd4oTI-39">
          <mxGeometry x="40" y="20" width="120" height="40" as="geometry" />
        </mxCell>
        <mxCell id="GMQwAWCvowhwmadd4oTI-41" value="crm_cust_info" style="rounded=1;whiteSpace=wrap;html=1;strokeColor=#6c8ebf;fillColor=#dae8fc;" vertex="1" parent="GMQwAWCvowhwmadd4oTI-39">
          <mxGeometry x="40" y="80" width="120" height="40" as="geometry" />
        </mxCell>
        <mxCell id="GMQwAWCvowhwmadd4oTI-42" value="crm_prd_info" style="rounded=1;whiteSpace=wrap;html=1;strokeColor=#6c8ebf;fillColor=#dae8fc;" vertex="1" parent="GMQwAWCvowhwmadd4oTI-39">
          <mxGeometry x="40" y="140" width="120" height="40" as="geometry" />
        </mxCell>
        <mxCell id="GMQwAWCvowhwmadd4oTI-43" value="erp_cust_az12" style="rounded=1;whiteSpace=wrap;html=1;strokeColor=#6c8ebf;fillColor=#dae8fc;" vertex="1" parent="GMQwAWCvowhwmadd4oTI-39">
          <mxGeometry x="40" y="200" width="120" height="40" as="geometry" />
        </mxCell>
        <mxCell id="GMQwAWCvowhwmadd4oTI-44" value="erp_loc_a101" style="rounded=1;whiteSpace=wrap;html=1;strokeColor=#6c8ebf;fillColor=#dae8fc;" vertex="1" parent="GMQwAWCvowhwmadd4oTI-39">
          <mxGeometry x="40" y="260" width="120" height="40" as="geometry" />
        </mxCell>
        <mxCell id="GMQwAWCvowhwmadd4oTI-45" value="erp_px_cat_g1v2" style="rounded=1;whiteSpace=wrap;html=1;strokeColor=#6c8ebf;fillColor=#dae8fc;" vertex="1" parent="GMQwAWCvowhwmadd4oTI-39">
          <mxGeometry x="40" y="320" width="120" height="40" as="geometry" />
        </mxCell>
        <mxCell id="GMQwAWCvowhwmadd4oTI-54" value="" style="edgeStyle=orthogonalEdgeStyle;html=1;endArrow=open;elbow=vertical;startArrow=none;endFill=0;strokeColor=#545B64;rounded=0;fontColor=#393C56;fillColor=#F2CC8F;exitX=1;exitY=0.5;exitDx=0;exitDy=0;" edge="1" parent="1" source="GMQwAWCvowhwmadd4oTI-14">
          <mxGeometry width="100" relative="1" as="geometry">
            <mxPoint x="620" y="340" as="sourcePoint" />
            <mxPoint x="700" y="200" as="targetPoint" />
          </mxGeometry>
        </mxCell>
        <mxCell id="GMQwAWCvowhwmadd4oTI-55" value="" style="edgeStyle=orthogonalEdgeStyle;html=1;endArrow=open;elbow=vertical;startArrow=none;endFill=0;strokeColor=#545B64;rounded=0;fontColor=#393C56;fillColor=#F2CC8F;exitX=1;exitY=0.5;exitDx=0;exitDy=0;entryX=0;entryY=0.5;entryDx=0;entryDy=0;" edge="1" parent="1" source="GMQwAWCvowhwmadd4oTI-15" target="GMQwAWCvowhwmadd4oTI-41">
          <mxGeometry width="100" relative="1" as="geometry">
            <mxPoint x="620" y="340" as="sourcePoint" />
            <mxPoint x="720" y="340" as="targetPoint" />
          </mxGeometry>
        </mxCell>
        <mxCell id="GMQwAWCvowhwmadd4oTI-56" value="" style="edgeStyle=orthogonalEdgeStyle;html=1;endArrow=open;elbow=vertical;startArrow=none;endFill=0;strokeColor=#545B64;rounded=0;fontColor=#393C56;fillColor=#F2CC8F;entryX=0;entryY=0.5;entryDx=0;entryDy=0;" edge="1" parent="1" source="GMQwAWCvowhwmadd4oTI-16" target="GMQwAWCvowhwmadd4oTI-42">
          <mxGeometry width="100" relative="1" as="geometry">
            <mxPoint x="640" y="300" as="sourcePoint" />
            <mxPoint x="740" y="300" as="targetPoint" />
          </mxGeometry>
        </mxCell>
        <mxCell id="GMQwAWCvowhwmadd4oTI-57" value="" style="edgeStyle=orthogonalEdgeStyle;html=1;endArrow=open;elbow=vertical;startArrow=none;endFill=0;strokeColor=#545B64;rounded=0;fontColor=#393C56;fillColor=#F2CC8F;exitX=1;exitY=0.5;exitDx=0;exitDy=0;" edge="1" parent="1" source="GMQwAWCvowhwmadd4oTI-17">
          <mxGeometry width="100" relative="1" as="geometry">
            <mxPoint x="640" y="440" as="sourcePoint" />
            <mxPoint x="700" y="380" as="targetPoint" />
          </mxGeometry>
        </mxCell>
        <mxCell id="GMQwAWCvowhwmadd4oTI-58" value="" style="edgeStyle=orthogonalEdgeStyle;html=1;endArrow=openThin;elbow=vertical;startArrow=none;endFill=0;strokeColor=#545B64;rounded=0;fontColor=#393C56;fillColor=#F2CC8F;exitX=1;exitY=0.5;exitDx=0;exitDy=0;entryX=0;entryY=0.5;entryDx=0;entryDy=0;" edge="1" parent="1" source="GMQwAWCvowhwmadd4oTI-18" target="GMQwAWCvowhwmadd4oTI-44">
          <mxGeometry width="100" relative="1" as="geometry">
            <mxPoint x="640" y="440" as="sourcePoint" />
            <mxPoint x="740" y="440" as="targetPoint" />
          </mxGeometry>
        </mxCell>
        <mxCell id="GMQwAWCvowhwmadd4oTI-59" value="" style="edgeStyle=orthogonalEdgeStyle;html=1;endArrow=openThin;elbow=vertical;startArrow=none;endFill=0;strokeColor=#545B64;rounded=0;fontColor=#393C56;fillColor=#F2CC8F;exitX=1;exitY=0.5;exitDx=0;exitDy=0;" edge="1" parent="1" source="GMQwAWCvowhwmadd4oTI-19">
          <mxGeometry width="100" relative="1" as="geometry">
            <mxPoint x="640" y="440" as="sourcePoint" />
            <mxPoint x="700" y="500" as="targetPoint" />
          </mxGeometry>
        </mxCell>
        <mxCell id="GMQwAWCvowhwmadd4oTI-60" value="&lt;span style=&quot;font-size: 14px;&quot;&gt;&lt;b&gt;Silver Layer&lt;/b&gt;&lt;/span&gt;" style="rounded=0;whiteSpace=wrap;html=1;strokeColor=#6c8ebf;fillColor=#dae8fc;" vertex="1" parent="1">
          <mxGeometry x="687" y="100" width="140" height="50" as="geometry" />
        </mxCell>
        <mxCell id="GMQwAWCvowhwmadd4oTI-73" value="" style="swimlane;startSize=0;rounded=1;strokeColor=#82b366;fillColor=#d5e8d4;" vertex="1" parent="1">
          <mxGeometry x="982" y="160" width="200" height="400" as="geometry" />
        </mxCell>
        <mxCell id="GMQwAWCvowhwmadd4oTI-75" value="&lt;font style=&quot;font-size: 15px;&quot;&gt;fact_sales&lt;/font&gt;" style="rounded=1;whiteSpace=wrap;html=1;strokeColor=#82b366;fillColor=#d5e8d4;" vertex="1" parent="GMQwAWCvowhwmadd4oTI-73">
          <mxGeometry x="40" y="60" width="120" height="60" as="geometry" />
        </mxCell>
        <mxCell id="GMQwAWCvowhwmadd4oTI-78" value="&lt;span style=&quot;font-size: 15px;&quot;&gt;dim_customers&lt;/span&gt;" style="rounded=1;whiteSpace=wrap;html=1;strokeColor=#82b366;fillColor=#d5e8d4;" vertex="1" parent="GMQwAWCvowhwmadd4oTI-73">
          <mxGeometry x="40" y="160" width="120" height="60" as="geometry" />
        </mxCell>
        <mxCell id="GMQwAWCvowhwmadd4oTI-79" value="&lt;span style=&quot;font-size: 15px;&quot;&gt;dim_products&lt;/span&gt;" style="rounded=1;whiteSpace=wrap;html=1;strokeColor=#82b366;fillColor=#d5e8d4;" vertex="1" parent="GMQwAWCvowhwmadd4oTI-73">
          <mxGeometry x="40" y="260" width="120" height="60" as="geometry" />
        </mxCell>
        <mxCell id="GMQwAWCvowhwmadd4oTI-80" value="" style="endArrow=open;endFill=1;endSize=12;html=1;rounded=1;strokeColor=light-dark(#0b0a0a, #b9624b);fontColor=#393C56;fillColor=#F2CC8F;exitX=1;exitY=0.5;exitDx=0;exitDy=0;entryX=0;entryY=0.5;entryDx=0;entryDy=0;" edge="1" parent="1" source="GMQwAWCvowhwmadd4oTI-40" target="GMQwAWCvowhwmadd4oTI-75">
          <mxGeometry width="160" relative="1" as="geometry">
            <mxPoint x="840" y="340" as="sourcePoint" />
            <mxPoint x="1000" y="340" as="targetPoint" />
          </mxGeometry>
        </mxCell>
        <mxCell id="GMQwAWCvowhwmadd4oTI-81" value="" style="endArrow=open;endFill=1;endSize=12;html=1;rounded=1;strokeColor=light-dark(#0d0c0c, #b9624b);fontColor=#393C56;fillColor=#F2CC8F;exitX=1;exitY=0.5;exitDx=0;exitDy=0;entryX=0;entryY=0.5;entryDx=0;entryDy=0;" edge="1" parent="1" source="GMQwAWCvowhwmadd4oTI-41" target="GMQwAWCvowhwmadd4oTI-78">
          <mxGeometry width="160" relative="1" as="geometry">
            <mxPoint x="840" y="340" as="sourcePoint" />
            <mxPoint x="1000" y="340" as="targetPoint" />
          </mxGeometry>
        </mxCell>
        <mxCell id="GMQwAWCvowhwmadd4oTI-82" value="" style="endArrow=open;endFill=1;endSize=12;html=1;rounded=1;strokeColor=light-dark(#171716, #b9624b);fontColor=#393C56;fillColor=#F2CC8F;exitX=1;exitY=0.5;exitDx=0;exitDy=0;entryX=0;entryY=0.5;entryDx=0;entryDy=0;" edge="1" parent="1" source="GMQwAWCvowhwmadd4oTI-42" target="GMQwAWCvowhwmadd4oTI-79">
          <mxGeometry width="160" relative="1" as="geometry">
            <mxPoint x="840" y="340" as="sourcePoint" />
            <mxPoint x="1000" y="340" as="targetPoint" />
          </mxGeometry>
        </mxCell>
        <mxCell id="GMQwAWCvowhwmadd4oTI-83" value="" style="endArrow=open;endFill=1;endSize=12;html=1;rounded=1;strokeColor=light-dark(#121211, #b9624b);fontColor=#393C56;fillColor=#F2CC8F;exitX=1;exitY=0.5;exitDx=0;exitDy=0;" edge="1" parent="1" source="GMQwAWCvowhwmadd4oTI-43">
          <mxGeometry width="160" relative="1" as="geometry">
            <mxPoint x="840" y="340" as="sourcePoint" />
            <mxPoint x="1020" y="360" as="targetPoint" />
          </mxGeometry>
        </mxCell>
        <mxCell id="GMQwAWCvowhwmadd4oTI-84" value="" style="endArrow=open;endFill=1;endSize=12;html=1;rounded=1;strokeColor=light-dark(#0d0c0c, #b9624b);fontColor=#393C56;fillColor=#F2CC8F;exitX=1;exitY=0.5;exitDx=0;exitDy=0;" edge="1" parent="1" source="GMQwAWCvowhwmadd4oTI-44">
          <mxGeometry width="160" relative="1" as="geometry">
            <mxPoint x="840" y="340" as="sourcePoint" />
            <mxPoint x="1020" y="360" as="targetPoint" />
          </mxGeometry>
        </mxCell>
        <mxCell id="GMQwAWCvowhwmadd4oTI-85" value="" style="endArrow=open;endFill=1;endSize=12;html=1;rounded=1;strokeColor=light-dark(#050505, #b9624b);fontColor=#393C56;fillColor=#F2CC8F;exitX=1;exitY=0.5;exitDx=0;exitDy=0;" edge="1" parent="1" source="GMQwAWCvowhwmadd4oTI-45">
          <mxGeometry width="160" relative="1" as="geometry">
            <mxPoint x="840" y="340" as="sourcePoint" />
            <mxPoint x="1020" y="460" as="targetPoint" />
          </mxGeometry>
        </mxCell>
        <mxCell id="GMQwAWCvowhwmadd4oTI-86" value="&lt;span style=&quot;font-size: 14px;&quot;&gt;&lt;b&gt;Gold Layer&lt;/b&gt;&lt;/span&gt;" style="rounded=0;whiteSpace=wrap;html=1;strokeColor=#82b366;fillColor=#d5e8d4;" vertex="1" parent="1">
          <mxGeometry x="1012" y="100" width="140" height="50" as="geometry" />
        </mxCell>
      </root>
    </mxGraphModel>
  </diagram>
</mxfile>
